<svg width="35" height="44" viewBox="0 0 35 44" fill="none" xmlns="http://www.w3.org/2000/svg">
<path d="M4.375 0C3.21468 0 2.10188 0.46357 1.28141 1.28873C0.460936 2.11389 0 3.23305 0 4.4V39.6C0 40.767 0.460936 41.8861 1.28141 42.7113C2.10188 43.5364 3.21468 44 4.375 44H30.625C31.7853 44 32.8981 43.5364 33.7186 42.7113C34.5391 41.8861 35 40.767 35 39.6V13.2L21.875 0H4.375ZM4.375 4.4H19.6875V15.4H30.625V39.6H4.375V4.4ZM8.75 22V26.4H26.25V22H8.75ZM8.75 30.8V35.2H19.6875V30.8H8.75Z" fill="#073066"/>
</svg>
