<svg width="35" height="35" viewBox="0 0 35 35" fill="none" xmlns="http://www.w3.org/2000/svg">
<path d="M32.2656 6.5625H26.25V2.73438H24.0625V6.5625H10.9375V2.73438H8.75V6.5625H2.73438C2.29941 6.56301 1.8824 6.73602 1.57484 7.04359C1.26727 7.35115 1.09426 7.76816 1.09375 8.20312V31.1719C1.09426 31.6068 1.26727 32.0238 1.57484 32.3314C1.8824 32.639 2.29941 32.812 2.73438 32.8125H32.2656C32.7006 32.812 33.1176 32.639 33.4252 32.3314C33.7327 32.0238 33.9057 31.6068 33.9062 31.1719V8.20312C33.9057 7.76816 33.7327 7.35115 33.4252 7.04359C33.1176 6.73602 32.7006 6.56301 32.2656 6.5625V6.5625ZM31.7188 30.625H3.28125V8.75H8.75V11.4844H10.9375V8.75H24.0625V11.4844H26.25V8.75H31.7188V30.625Z" fill="#073066"/>
<path d="M9.84375 15.3125H7.65625V17.5H9.84375V15.3125Z" fill="#073066"/>
<path d="M15.8594 15.3125H13.6719V17.5H15.8594V15.3125Z" fill="#073066"/>
<path d="M21.3281 15.3125H19.1406V17.5H21.3281V15.3125Z" fill="#073066"/>
<path d="M27.3438 15.3125H25.1562V17.5H27.3438V15.3125Z" fill="#073066"/>
<path d="M9.84375 20.2344H7.65625V22.4219H9.84375V20.2344Z" fill="#073066"/>
<path d="M15.8594 20.2344H13.6719V22.4219H15.8594V20.2344Z" fill="#073066"/>
<path d="M21.3281 20.2344H19.1406V22.4219H21.3281V20.2344Z" fill="#073066"/>
<path d="M27.3438 20.2344H25.1562V22.4219H27.3438V20.2344Z" fill="#073066"/>
<path d="M9.84375 25.1562H7.65625V27.3438H9.84375V25.1562Z" fill="#073066"/>
<path d="M15.8594 25.1562H13.6719V27.3438H15.8594V25.1562Z" fill="#073066"/>
<path d="M21.3281 25.1562H19.1406V27.3438H21.3281V25.1562Z" fill="#073066"/>
<path d="M27.3438 25.1562H25.1562V27.3438H27.3438V25.1562Z" fill="#073066"/>
</svg>
