<svg width="35" height="35" viewBox="0 0 35 35" fill="none" xmlns="http://www.w3.org/2000/svg">
<path d="M29.166 5.83366H24.5431L21.8743 2.91699H13.1243L10.4556 5.83366H5.83268C5.05913 5.83366 4.31727 6.14095 3.77029 6.68793C3.22331 7.23491 2.91602 7.97678 2.91602 8.75033V26.2503C2.91602 27.0239 3.22331 27.7657 3.77029 28.3127C4.31727 28.8597 5.05913 29.167 5.83268 29.167H29.166C29.9396 29.167 30.6814 28.8597 31.2284 28.3127C31.7754 27.7657 32.0827 27.0239 32.0827 26.2503V8.75033C32.0827 7.97678 31.7754 7.23491 31.2284 6.68793C30.6814 6.14095 29.9396 5.83366 29.166 5.83366V5.83366ZM29.166 26.2503H5.83268V8.75033H11.7389L14.4077 5.83366H20.591L23.2598 8.75033H29.166V26.2503ZM17.4993 10.2087C15.5655 10.2087 13.7108 10.9769 12.3434 12.3443C10.9759 13.7118 10.2077 15.5665 10.2077 17.5003C10.2077 19.4342 10.9759 21.2889 12.3434 22.6563C13.7108 24.0238 15.5655 24.792 17.4993 24.792C19.4332 24.792 21.2879 24.0238 22.6553 22.6563C24.0228 21.2889 24.791 19.4342 24.791 17.5003C24.791 15.5665 24.0228 13.7118 22.6553 12.3443C21.2879 10.9769 19.4332 10.2087 17.4993 10.2087V10.2087ZM17.4993 21.8753C16.339 21.8753 15.2262 21.4144 14.4058 20.5939C13.5853 19.7734 13.1243 18.6606 13.1243 17.5003C13.1243 16.34 13.5853 15.2272 14.4058 14.4067C15.2262 13.5863 16.339 13.1253 17.4993 13.1253C18.6597 13.1253 19.7725 13.5863 20.5929 14.4067C21.4134 15.2272 21.8743 16.34 21.8743 17.5003C21.8743 18.6606 21.4134 19.7734 20.5929 20.5939C19.7725 21.4144 18.6597 21.8753 17.4993 21.8753Z" fill="#073066"/>
</svg>
