<svg width="35" height="35" viewBox="0 0 35 35" fill="none" xmlns="http://www.w3.org/2000/svg">
<path d="M17.4993 32.0837C25.5535 32.0837 32.0827 25.5545 32.0827 17.5003C32.0827 9.44617 25.5535 2.91699 17.4993 2.91699C9.44519 2.91699 2.91602 9.44617 2.91602 17.5003C2.91602 25.5545 9.44519 32.0837 17.4993 32.0837Z" stroke="#073066" stroke-width="2"/>
<path d="M2.91602 15.1961C5.11434 14.1581 6.74025 14.0135 7.7937 14.7622C9.37395 15.8855 9.57207 20.4633 13.1663 18.2754C16.7605 16.0876 11.6272 15.1961 12.7415 12.0268C13.8559 8.85745 17.5054 11.3193 17.8682 7.84777C18.11 5.53334 15.3416 4.64777 9.56281 5.19106" stroke="#073066" stroke-width="2"/>
<path d="M26.2506 5.83301C22.0839 9.47053 20.6286 11.6671 21.8848 12.4227C23.7691 13.5561 24.5686 11.9604 26.8679 12.4227C29.1673 12.8851 28.6694 16.0017 27.46 16.0017C26.2506 16.0017 19.987 15.2041 20.3025 18.8596C20.618 22.515 24.3855 23.0561 24.3855 25.0984C24.3855 26.4599 23.5519 28.5436 21.8848 31.3496" stroke="#073066" stroke-width="2" stroke-linecap="round"/>
<path d="M4.45117 24.0085C5.1158 23.7186 5.6154 23.5061 5.94997 23.3709C8.75514 22.2376 10.8366 21.9704 12.1943 22.5695C14.595 23.6289 13.6721 25.7685 14.424 26.5567C15.176 27.3449 17.0537 27.1156 17.0537 28.6151C17.0537 29.6147 16.7179 30.744 16.0464 32.0028" stroke="#073066" stroke-width="2" stroke-linecap="round"/>
</svg>
