<svg width="35" height="35" viewBox="0 0 35 35" fill="none" xmlns="http://www.w3.org/2000/svg">
<path d="M10.9368 26.2497C8.80959 26.2497 6.76946 25.4046 5.26526 23.9004C3.76107 22.3962 2.91602 20.3561 2.91602 18.2288C2.91602 16.1016 3.76107 14.0615 5.26526 12.5573C6.76946 11.0531 8.80959 10.208 10.9368 10.208H26.2493C27.7964 10.208 29.2802 10.8226 30.3741 11.9166C31.4681 13.0105 32.0827 14.4942 32.0827 16.0413C32.0827 17.5884 31.4681 19.0722 30.3741 20.1661C29.2802 21.2601 27.7964 21.8747 26.2493 21.8747H13.8535C12.8866 21.8747 11.9592 21.4906 11.2755 20.8068C10.5918 20.1231 10.2077 19.1958 10.2077 18.2288C10.2077 17.2619 10.5918 16.3346 11.2755 15.6508C11.9592 14.9671 12.8866 14.583 13.8535 14.583H24.791V16.7705H13.8535C13.4667 16.7705 13.0958 16.9242 12.8223 17.1976C12.5488 17.4711 12.3952 17.8421 12.3952 18.2288C12.3952 18.6156 12.5488 18.9865 12.8223 19.26C13.0958 19.5335 13.4667 19.6872 13.8535 19.6872H26.2493C26.7281 19.6872 27.2022 19.5929 27.6445 19.4097C28.0869 19.2264 28.4888 18.9579 28.8273 18.6193C29.1659 18.2808 29.4344 17.8789 29.6177 17.4365C29.8009 16.9942 29.8952 16.5201 29.8952 16.0413C29.8952 15.5626 29.8009 15.0885 29.6177 14.6461C29.4344 14.2038 29.1659 13.8019 28.8273 13.4633C28.4888 13.1248 28.0869 12.8563 27.6445 12.673C27.2022 12.4898 26.7281 12.3955 26.2493 12.3955H10.9368C9.38975 12.3955 7.90602 13.0101 6.81206 14.1041C5.7181 15.198 5.10352 16.6817 5.10352 18.2288C5.10352 19.7759 5.7181 21.2597 6.81206 22.3536C7.90602 23.4476 9.38975 24.0622 10.9368 24.0622H24.791V26.2497H10.9368Z" fill="#073066"/>
</svg>
