<svg width="20" height="20" viewBox="0 0 20 20" fill="none" xmlns="http://www.w3.org/2000/svg">
<path d="M5.99414 18.4371C4.94343 18.4371 3.91632 18.1256 3.04268 17.5418C2.16905 16.9581 1.48813 16.1284 1.08604 15.1577C0.683946 14.1869 0.578738 13.1188 0.783717 12.0883C0.988696 11.0577 1.49466 10.1111 2.23762 9.36816L9.9173 1.68848L10.8013 2.57219L3.12164 10.2519C2.35975 11.0138 1.93173 12.0471 1.93172 13.1245C1.93171 14.202 2.35973 15.2353 3.1216 15.9972C3.88348 16.7591 4.91681 17.1871 5.99427 17.1871C7.07173 17.1872 8.10507 16.7591 8.86695 15.9973L16.9885 7.87551C17.5136 7.34756 17.8079 6.63295 17.8069 5.88835C17.8058 5.14376 17.5096 4.42995 16.9831 3.90345C16.4566 3.37694 15.7427 3.08071 14.9982 3.07971C14.2536 3.0787 13.5389 3.37301 13.011 3.89809L4.88926 12.0198C4.74312 12.1647 4.62704 12.337 4.54767 12.5268C4.46831 12.7166 4.42722 12.9203 4.42677 13.1261C4.42632 13.3318 4.46651 13.5357 4.54505 13.7258C4.62358 13.916 4.73891 14.0888 4.88441 14.2343C5.02991 14.3798 5.20271 14.4952 5.3929 14.5737C5.58309 14.6522 5.78692 14.6924 5.99268 14.692C6.19845 14.6915 6.4021 14.6504 6.59194 14.5711C6.78179 14.4917 6.95409 14.3756 7.09895 14.2295L14.1159 7.21262L14.9998 8.09648L7.98285 15.1134C7.72208 15.3763 7.41195 15.5852 7.07026 15.7279C6.72857 15.8707 6.36204 15.9446 5.99172 15.9454C5.62139 15.9462 5.25456 15.8738 4.91228 15.7324C4.57 15.5911 4.259 15.3835 3.99714 15.1216C3.73528 14.8598 3.52771 14.5488 3.38635 14.2065C3.24499 13.8642 3.17261 13.4974 3.17338 13.1271C3.17414 12.7568 3.24804 12.3902 3.39082 12.0485C3.53359 11.7068 3.74245 11.3967 4.00539 11.1359L12.1271 3.01418C12.504 2.63502 12.9519 2.33395 13.4453 2.12823C13.9387 1.92251 14.4678 1.81619 15.0024 1.81535C15.5369 1.81452 16.0664 1.91919 16.5604 2.12338C17.0544 2.32756 17.5033 2.62723 17.8813 3.00522C18.2593 3.38321 18.559 3.83208 18.7632 4.3261C18.9673 4.82013 19.072 5.34959 19.0712 5.88415C19.0704 6.41871 18.964 6.94784 18.7583 7.44123C18.5526 7.93462 18.2515 8.38256 17.8724 8.75937L9.75062 16.8811C9.25848 17.376 8.67306 17.7683 8.02825 18.0354C7.38345 18.3025 6.69207 18.4391 5.99414 18.4371V18.4371Z" fill="#3B82F6"/>
</svg>
