<svg width="50" height="50" viewBox="0 0 50 50" fill="none" xmlns="http://www.w3.org/2000/svg">
<path d="M38.3753 17.1251C37.1024 14.2001 34.9055 11.7731 32.1213 10.2162C29.3371 8.65918 26.1192 8.05805 22.9607 8.50488C19.8021 8.9517 16.8772 10.4218 14.6342 12.69C12.3911 14.9582 10.9536 17.8993 10.542 21.0626C8.55571 21.5382 6.81328 22.7268 5.64561 24.4025C4.47793 26.0783 3.96633 28.1245 4.20795 30.1526C4.44958 32.1807 5.4276 34.0494 6.95629 35.4039C8.48499 36.7584 10.4579 37.5044 12.5003 37.5001C13.0529 37.5001 13.5828 37.2806 13.9735 36.8899C14.3642 36.4992 14.5837 35.9693 14.5837 35.4167C14.5837 34.8642 14.3642 34.3343 13.9735 33.9436C13.5828 33.5529 13.0529 33.3334 12.5003 33.3334C11.3953 33.3334 10.3354 32.8944 9.55404 32.113C8.77264 31.3316 8.33365 30.2718 8.33365 29.1667C8.33365 28.0617 8.77264 27.0019 9.55404 26.2205C10.3354 25.4391 11.3953 25.0001 12.5003 25.0001C13.0529 25.0001 13.5828 24.7806 13.9735 24.3899C14.3642 23.9992 14.5837 23.4693 14.5837 22.9167C14.589 20.4527 15.4676 18.0704 17.0634 16.1929C18.6592 14.3155 20.8688 13.0645 23.2998 12.6623C25.7308 12.2601 28.2256 12.7326 30.3411 13.9959C32.4566 15.2593 34.0558 17.2316 34.8545 19.5626C34.9736 19.9206 35.1876 20.2395 35.4738 20.4853C35.76 20.7312 36.1076 20.8947 36.4795 20.9584C37.8671 21.2206 39.1251 21.9451 40.0483 23.0137C40.9715 24.0823 41.5057 25.4321 41.5637 26.8431C41.6216 28.2541 41.2001 29.6431 40.3676 30.7839C39.5352 31.9246 38.3409 32.7499 36.9795 33.1251C36.4435 33.2632 35.9844 33.6086 35.7031 34.0852C35.4218 34.5619 35.3414 35.1308 35.4795 35.6667C35.6176 36.2027 35.963 36.6618 36.4397 36.9431C36.9163 37.2244 37.4852 37.3049 38.0212 37.1667C40.2136 36.5874 42.1572 35.3084 43.5566 33.524C44.956 31.7395 45.7349 29.5472 45.775 27.2798C45.815 25.0124 45.1141 22.7939 43.7786 20.9611C42.4431 19.1284 40.546 17.7815 38.3753 17.1251V17.1251ZM26.4795 21.4376C26.2814 21.2479 26.0477 21.0992 25.792 21.0001C25.2848 20.7917 24.7159 20.7917 24.2087 21.0001C23.9529 21.0992 23.7193 21.2479 23.5212 21.4376L17.2712 27.6876C16.8789 28.0799 16.6585 28.6119 16.6585 29.1667C16.6585 29.7215 16.8789 30.2536 17.2712 30.6459C17.6635 31.0382 18.1955 31.2586 18.7503 31.2586C19.3051 31.2586 19.8372 31.0382 20.2295 30.6459L22.917 27.9376V39.5834C22.917 40.1359 23.1365 40.6658 23.5272 41.0565C23.9179 41.4472 24.4478 41.6667 25.0003 41.6667C25.5529 41.6667 26.0828 41.4472 26.4735 41.0565C26.8642 40.6658 27.0837 40.1359 27.0837 39.5834V27.9376L29.7712 30.6459C29.9648 30.8412 30.1952 30.9962 30.4491 31.1019C30.703 31.2077 30.9753 31.2621 31.2503 31.2621C31.5253 31.2621 31.7977 31.2077 32.0515 31.1019C32.3054 30.9962 32.5358 30.8412 32.7295 30.6459C32.9248 30.4522 33.0797 30.2218 33.1855 29.9679C33.2913 29.7141 33.3457 29.4418 33.3457 29.1667C33.3457 28.8917 33.2913 28.6194 33.1855 28.3655C33.0797 28.1117 32.9248 27.8812 32.7295 27.6876L26.4795 21.4376Z" fill="#A3A9B3"/>
</svg>
