<svg width="24" height="24" viewBox="0 0 24 24" fill="none" xmlns="http://www.w3.org/2000/svg">
<path d="M12.001 2.24695C8.27441 2.24695 5.25098 5.1246 5.25098 8.66882C5.25098 12.7469 9.75098 19.2096 11.4033 21.4418C11.4719 21.536 11.5618 21.6127 11.6657 21.6656C11.7695 21.7184 11.8844 21.746 12.001 21.746C12.1175 21.746 12.2324 21.7184 12.3363 21.6656C12.4402 21.6127 12.53 21.536 12.5986 21.4418C14.251 19.2105 18.751 12.7502 18.751 8.66882C18.751 5.1246 15.7275 2.24695 12.001 2.24695Z" stroke="#3B82F6" stroke-width="2.375" stroke-linecap="round" stroke-linejoin="round"/>
<path d="M11.999 11.2469C13.2417 11.2469 14.249 10.2396 14.249 8.99695C14.249 7.75431 13.2417 6.74695 11.999 6.74695C10.7564 6.74695 9.74902 7.75431 9.74902 8.99695C9.74902 10.2396 10.7564 11.2469 11.999 11.2469Z" stroke="#3B82F6" stroke-width="2.375" stroke-linecap="round" stroke-linejoin="round"/>
</svg>
