<svg width="35" height="35" viewBox="0 0 35 35" fill="none" xmlns="http://www.w3.org/2000/svg">
<path d="M17.5007 15.7502C18.0775 15.7502 18.6414 15.5791 19.1211 15.2587C19.6007 14.9382 19.9745 14.4827 20.1953 13.9497C20.4161 13.4168 20.4738 12.8303 20.3613 12.2645C20.2487 11.6988 19.9709 11.1791 19.563 10.7711C19.1551 10.3632 18.6354 10.0855 18.0697 9.97292C17.5039 9.86038 16.9174 9.91814 16.3845 10.1389C15.8515 10.3596 15.396 10.7335 15.0755 11.2131C14.755 11.6928 14.584 12.2567 14.584 12.8335C14.584 13.6071 14.8913 14.349 15.4383 14.8959C15.9852 15.4429 16.7271 15.7502 17.5007 15.7502ZM16.4652 25.8273C16.6008 25.964 16.7621 26.0725 16.9398 26.1465C17.1175 26.2205 17.3081 26.2587 17.5007 26.2587C17.6932 26.2587 17.8838 26.2205 18.0615 26.1465C18.2392 26.0725 18.4005 25.964 18.5361 25.8273L24.5007 19.8481C25.886 18.4635 26.8296 16.6991 27.2121 14.7782C27.5946 12.8572 27.3988 10.866 26.6495 9.0563C25.9002 7.24663 24.631 5.69983 23.0025 4.61154C21.374 3.52326 19.4593 2.94238 17.5007 2.94238C15.542 2.94238 13.6273 3.52326 11.9988 4.61154C10.3703 5.69983 9.10114 7.24663 8.35182 9.0563C7.60251 10.866 7.40672 12.8572 7.78921 14.7782C8.17171 16.6991 9.1153 18.4635 10.5007 19.8481L16.4652 25.8273ZM10.5444 12.1627C10.644 11.1229 10.9746 10.1186 11.512 9.22288C12.0494 8.3272 12.7801 7.56285 13.6507 6.98563C14.7943 6.23473 16.1325 5.83465 17.5007 5.83465C18.8688 5.83465 20.207 6.23473 21.3507 6.98563C22.2154 7.56087 22.9419 8.32058 23.478 9.21015C24.014 10.0997 24.3463 11.097 24.4509 12.1303C24.5555 13.1636 24.4298 14.2073 24.0828 15.1862C23.7359 16.1651 23.1763 17.055 22.4444 17.7919L17.5007 22.7356L12.5569 17.7919C11.8241 17.0622 11.2633 16.1783 10.9151 15.2045C10.567 14.2307 10.4403 13.1916 10.5444 12.1627V12.1627ZM27.709 29.1669H7.29232C6.90554 29.1669 6.53461 29.3205 6.26112 29.594C5.98763 29.8675 5.83398 30.2384 5.83398 30.6252C5.83398 31.012 5.98763 31.3829 6.26112 31.6564C6.53461 31.9299 6.90554 32.0835 7.29232 32.0835H27.709C28.0958 32.0835 28.4667 31.9299 28.7402 31.6564C29.0137 31.3829 29.1673 31.012 29.1673 30.6252C29.1673 30.2384 29.0137 29.8675 28.7402 29.594C28.4667 29.3205 28.0958 29.1669 27.709 29.1669Z" fill="#073066"/>
</svg>
